# xmcd CD database file
# Copyright (C) 1993-1998 Ti Kan
# 
# Track frame offsets:
#     150
#     12970
#     31797
#     49870
#     65547
#     78000
#     98922
#     115870
#     129515
#     148192
#     164380
#     177955
#     193870
#     209235
#     226482
#     242475
#     259825
#     276972
#     295730
#     313280
# 
# Disc length: 4364 seconds
# 
# Revision: 1
# Processed by: cddbd v1.4b41PL1 Copyright (c) Steve Scherf et al.
# Submitted via: DiscPlay 4.0.4
# 
DISCID=29110a14
DTITLE=Various Artist - 20 toiveiskelm   3 -  Sen kes n muistan
DYEAR=1900
DGENRE=
TTITLE0=Katri Helena: Vie minut
TTITLE1=Isto Hiltunen: Saavatko he joskus toisensa
TTITLE2=Laura Voutilainen: Sen kes n muistan
TTITLE3=Ressu Redford:Taas aurinko nousee
TTITLE4=Tony Montana - Vaaksa vaaraa vain
TTITLE5=Meiju Suvas - Pure mua
TTITLE6=Matti ja Teppo - Kuulut aikaan parhaimpaan
TTITLE7=Kaija Lustila - Penkki, puu ja puistotie
TTITLE8=Remu and his allstars - T ysikuu
TTITLE9=Maarit  - J  tel kes 
TTITLE10=Joel Hallikainen - Sininen on kes y 
TTITLE11=Katri Helena - Soittaja
TTITLE12=Tero Kyr l  - Lomaromanssi
TTITLE13=Arja Koriseva - Rannalla
TTITLE14=Kake Randelin :Kukkia kulkurilta
TTITLE15=Essi Wuorela - Yksin kuitenkin
TTITLE16=Teuvo Oinas - Sateen j lkeen
TTITLE17=Paula Koivuniemi - Laulun laitumille
TTITLE18=Eija Ahvo and Paleale - Kirpparilla
TTITLE19=Petri Laaksonen - Kes   l  mee
EXTD=
EXTT0=
EXTT1=
EXTT2=
EXTT3=
EXTT4=
EXTT5=
EXTT6=
EXTT7=
EXTT8=
EXTT9=
EXTT10=
EXTT11=
EXTT12=
EXTT13=
EXTT14=
EXTT15=
EXTT16=
EXTT17=
EXTT18=
EXTT19=
PLAYORDER=
